<svg version="1.1" viewBox="0.0 0.0 769.0 132.0" fill="none" stroke="none" stroke-linecap="square" stroke-miterlimit="10" xmlns:xlink="http://www.w3.org/1999/xlink" xmlns="http://www.w3.org/2000/svg"><clipPath id="p.0"><path d="m0 0l769.0 0l0 132.0l-769.0 0l0 -132.0z" clip-rule="nonzero"/></clipPath><g clip-path="url(#p.0)"><path fill="#080808" fill-opacity="0.0" d="m0 0l769.0 0l0 132.0l-769.0 0z" fill-rule="evenodd"/><path fill="#080808" d="m353.14172 63.11811l17.574799 0l0 39.55905l-17.574799 0z" fill-rule="evenodd"/><path stroke="#080808" stroke-width="1.0" stroke-linejoin="round" stroke-linecap="butt" d="m353.14172 63.11811l17.574799 0l0 39.55905l-17.574799 0z" fill-rule="evenodd"/><path fill="#080808" d="m318.7874 60.742783l19.590546 0l0 41.921257l-19.590546 0z" fill-rule="evenodd"/><path stroke="#080808" stroke-width="1.0" stroke-linejoin="round" stroke-linecap="butt" d="m318.7874 60.742783l19.590546 0l0 41.921257l-19.590546 0z" fill-rule="evenodd"/><path fill="#080808" d="m338.37796 83.86089l7.1810913 0l0 18.803146l-7.1810913 0z" fill-rule="evenodd"/><path stroke="#080808" stroke-width="1.0" stroke-linejoin="round" stroke-linecap="butt" d="m338.37796 83.86089l7.1810913 0l0 18.803146l-7.1810913 0z" fill-rule="evenodd"/><path fill="#080808" d="m311.6063 81.485565l7.181122 0l0 21.196846l-7.181122 0z" fill-rule="evenodd"/><path stroke="#080808" stroke-width="1.0" stroke-linejoin="round" stroke-linecap="butt" d="m311.6063 81.485565l7.181122 0l0 21.196846l-7.181122 0z" fill-rule="evenodd"/><path fill="#080808" d="m300.06824 72.301834l7.1810913 0l0 30.362206l-7.1810913 0z" fill-rule="evenodd"/><path stroke="#080808" stroke-width="1.0" stroke-linejoin="round" stroke-linecap="butt" d="m300.06824 72.301834l7.1810913 0l0 30.362206l-7.1810913 0z" fill-rule="evenodd"/><path fill="#080808" d="m296.01575 75.13648l4.0629883 0l0 27.527557l-4.0629883 0z" fill-rule="evenodd"/><path stroke="#080808" stroke-width="1.0" stroke-linejoin="round" stroke-linecap="butt" d="m296.01575 75.13648l4.0629883 0l0 27.527557l-4.0629883 0z" fill-rule="evenodd"/><path fill="#080808" d="m251.3727 63.11811l19.59056 0l0 39.55905l-19.59056 0z" fill-rule="evenodd"/><path stroke="#080808" stroke-width="1.0" stroke-linejoin="round" stroke-linecap="butt" d="m251.3727 63.11811l19.59056 0l0 39.55905l-19.59056 0z" fill-rule="evenodd"/><path fill="#080808" d="m233.29659 33.230972l12.881897 0l0 69.448814l-12.881897 0z" fill-rule="evenodd"/><path stroke="#080808" stroke-width="1.0" stroke-linejoin="round" stroke-linecap="butt" d="m233.29659 33.230972l12.881897 0l0 69.448814l-12.881897 0z" fill-rule="evenodd"/><path fill="#080808" d="m209.86089 41.939632l17.574814 0l0 60.724407l-17.574814 0z" fill-rule="evenodd"/><path stroke="#080808" stroke-width="1.0" stroke-linejoin="round" stroke-linecap="butt" d="m209.86089 41.939632l17.574814 0l0 60.724407l-17.574814 0z" fill-rule="evenodd"/><path fill="#080808" d="m207.72966 44.31496l2.1417236 0l0 58.3622l-2.1417236 0z" fill-rule="evenodd"/><path stroke="#080808" stroke-width="1.0" stroke-linejoin="round" stroke-linecap="butt" d="m207.72966 44.31496l2.1417236 0l0 58.3622l-2.1417236 0z" fill-rule="evenodd"/><path fill="#080808" d="m205.58792 60.742783l2.141739 0l0 41.921257l-2.141739 0z" fill-rule="evenodd"/><path stroke="#080808" stroke-width="1.0" stroke-linejoin="round" stroke-linecap="butt" d="m205.58792 60.742783l2.141739 0l0 41.921257l-2.141739 0z" fill-rule="evenodd"/><path fill="#080808" d="m227.0315 75.13648l7.1811066 0l0 27.527557l-7.1811066 0z" fill-rule="evenodd"/><path stroke="#080808" stroke-width="1.0" stroke-linejoin="round" stroke-linecap="butt" d="m227.0315 75.13648l7.1811066 0l0 27.527557l-7.1811066 0z" fill-rule="evenodd"/><path fill="#080808" d="m246.17848 75.13648l7.1810913 0l0 27.527557l-7.1810913 0z" fill-rule="evenodd"/><path stroke="#080808" stroke-width="1.0" stroke-linejoin="round" stroke-linecap="butt" d="m246.17848 75.13648l7.1810913 0l0 27.527557l-7.1810913 0z" fill-rule="evenodd"/><path fill="#080808" d="m271.0971 82.68241l7.181122 0l0 21.196854l-7.181122 0z" fill-rule="evenodd"/><path stroke="#080808" stroke-width="1.0" stroke-linejoin="round" stroke-linecap="butt" d="m271.0971 82.68241l7.181122 0l0 21.196854l-7.181122 0z" fill-rule="evenodd"/><path fill="#080808" d="m278.8924 86.90551l7.1810913 0l0 15.748032l-7.1810913 0z" fill-rule="evenodd"/><path stroke="#080808" stroke-width="1.0" stroke-linejoin="round" stroke-linecap="butt" d="m278.8924 86.90551l7.1810913 0l0 15.748032l-7.1810913 0z" fill-rule="evenodd"/><path fill="#080808" d="m292.59842 86.90551l4.0629883 0l0 15.748032l-4.0629883 0z" fill-rule="evenodd"/><path stroke="#080808" stroke-width="1.0" stroke-linejoin="round" stroke-linecap="butt" d="m292.59842 86.90551l4.0629883 0l0 15.748032l-4.0629883 0z" fill-rule="evenodd"/><path fill="#080808" d="m285.58267 91.34121l7.181122 0l0 11.307083l-7.181122 0z" fill-rule="evenodd"/><path stroke="#080808" stroke-width="1.0" stroke-linejoin="round" stroke-linecap="butt" d="m285.58267 91.34121l7.181122 0l0 11.307083l-7.181122 0z" fill-rule="evenodd"/><path fill="#080808" d="m305.84253 87.59318l7.1810913 0l0 15.748032l-7.1810913 0z" fill-rule="evenodd"/><path stroke="#080808" stroke-width="1.0" stroke-linejoin="round" stroke-linecap="butt" d="m305.84253 87.59318l7.1810913 0l0 15.748032l-7.1810913 0z" fill-rule="evenodd"/><path fill="#080808" d="m345.76117 91.34121l7.1810913 0l0 12.535431l-7.1810913 0z" fill-rule="evenodd"/><path stroke="#080808" stroke-width="1.0" stroke-linejoin="round" stroke-linecap="butt" d="m345.76117 91.34121l7.1810913 0l0 12.535431l-7.1810913 0z" fill-rule="evenodd"/><path fill="#080808" d="m177.76903 37.18635l24.409454 0l0 65.44882l-24.409454 0z" fill-rule="evenodd"/><path stroke="#080808" stroke-width="1.0" stroke-linejoin="round" stroke-linecap="butt" d="m177.76903 37.18635l24.409454 0l0 65.44882l-24.409454 0z" fill-rule="evenodd"/><path fill="#080808" d="m179.44095 30.761154l7.1810913 0l0 6.4251976l-7.1810913 0z" fill-rule="evenodd"/><path stroke="#080808" stroke-width="1.0" stroke-linejoin="round" stroke-linecap="butt" d="m179.44095 30.761154l7.1810913 0l0 6.4251976l-7.1810913 0z" fill-rule="evenodd"/><path fill="#080808" d="m192.2441 30.761154l7.1811066 0l0 6.4251976l-7.1811066 0z" fill-rule="evenodd"/><path stroke="#080808" stroke-width="1.0" stroke-linejoin="round" stroke-linecap="butt" d="m192.2441 30.761154l7.1811066 0l0 6.4251976l-7.1811066 0z" fill-rule="evenodd"/><path fill="#080808" fill-opacity="0.0" d="m239.73753 33.230972l-0.06298828 -13.259844" fill-rule="evenodd"/><path stroke="#080808" stroke-width="1.0" stroke-linejoin="round" stroke-linecap="butt" d="m239.73753 33.230972l-0.06298828 -13.259844" fill-rule="evenodd"/><path fill="#080808" d="m202.81364 63.11811l2.141739 0l0 39.55905l-2.141739 0z" fill-rule="evenodd"/><path stroke="#080808" stroke-width="1.0" stroke-linejoin="round" stroke-linecap="butt" d="m202.81364 63.11811l2.141739 0l0 39.55905l-2.141739 0z" fill-rule="evenodd"/><path fill="#080808" d="m152.60104 59.35958l21.763779 0l0 44.503937l-21.763779 0z" fill-rule="evenodd"/><path stroke="#080808" stroke-width="1.0" stroke-linejoin="round" stroke-linecap="butt" d="m152.60104 59.35958l21.763779 0l0 44.503937l-21.763779 0z" fill-rule="evenodd"/><path fill="#080808" d="m174.99213 69.18635l2.141739 0l0 34.14174l-2.141739 0z" fill-rule="evenodd"/><path stroke="#080808" stroke-width="1.0" stroke-linejoin="round" stroke-linecap="butt" d="m174.99213 69.18635l2.141739 0l0 34.14174l-2.141739 0z" fill-rule="evenodd"/><path fill="#080808" d="m130.83727 30.761154l21.763779 0l0 73.10236l-21.763779 0z" fill-rule="evenodd"/><path stroke="#080808" stroke-width="1.0" stroke-linejoin="round" stroke-linecap="butt" d="m130.83727 30.761154l21.763779 0l0 73.10236l-21.763779 0z" fill-rule="evenodd"/><path fill="#080808" d="m157.64305 55.385826l10.551178 0l0 3.9685059l-10.551178 0z" fill-rule="evenodd"/><path stroke="#080808" stroke-width="1.0" stroke-linejoin="round" stroke-linecap="butt" d="m157.64305 55.385826l10.551178 0l0 3.9685059l-10.551178 0z" fill-rule="evenodd"/><path fill="#080808" fill-opacity="0.0" d="m159.86351 55.380577l-0.06298828 -6.645668" fill-rule="evenodd"/><path stroke="#080808" stroke-width="1.0" stroke-linejoin="round" stroke-linecap="butt" d="m159.86351 55.380577l-0.06298828 -6.645668" fill-rule="evenodd"/><path fill="#080808" d="m133.12073 26.805775l17.574814 0l0 6.4251976l-17.574814 0z" fill-rule="evenodd"/><path stroke="#080808" stroke-width="1.0" stroke-linejoin="round" stroke-linecap="butt" d="m133.12073 26.805775l17.574814 0l0 6.4251976l-17.574814 0z" fill-rule="evenodd"/><path fill="#080808" d="m135.54068 22.427822l12.881897 0l0 3.968504l-12.881897 0z" fill-rule="evenodd"/><path stroke="#080808" stroke-width="1.0" stroke-linejoin="round" stroke-linecap="butt" d="m135.54068 22.427822l12.881897 0l0 3.968504l-12.881897 0z" fill-rule="evenodd"/><path fill="#080808" d="m138.39108 18.03937l7.1810913 0l0 6.4251976l-7.1810913 0z" fill-rule="evenodd"/><path stroke="#080808" stroke-width="1.0" stroke-linejoin="round" stroke-linecap="butt" d="m138.39108 18.03937l7.1810913 0l0 6.4251976l-7.1810913 0z" fill-rule="evenodd"/><path fill="#080808" d="m140.91077 14.094488l2.1417236 0l0 3.968504l-2.1417236 0z" fill-rule="evenodd"/><path stroke="#080808" stroke-width="1.0" stroke-linejoin="round" stroke-linecap="butt" d="m140.91077 14.094488l2.1417236 0l0 3.968504l-2.1417236 0z" fill-rule="evenodd"/><path fill="#080808" d="m110.25459 64.00525l21.763779 0l0 44.503937l-21.763779 0z" fill-rule="evenodd"/><path stroke="#080808" stroke-width="1.0" stroke-linejoin="round" stroke-linecap="butt" d="m110.25459 64.00525l21.763779 0l0 44.503937l-21.763779 0z" fill-rule="evenodd"/><path fill="#080808" d="m88.50131 55.380577l30.740158 0l0 47.244095l-30.740158 0z" fill-rule="evenodd"/><path stroke="#080808" stroke-width="1.0" stroke-linejoin="round" stroke-linecap="butt" d="m88.50131 55.380577l30.740158 0l0 47.244095l-30.740158 0z" fill-rule="evenodd"/><path fill="#080808" d="m56.501312 65.27821l33.16535 0l0 39.55906l-33.16535 0z" fill-rule="evenodd"/><path stroke="#080808" stroke-width="1.0" stroke-linejoin="round" stroke-linecap="butt" d="m56.501312 65.27821l33.16535 0l0 39.55906l-33.16535 0z" fill-rule="evenodd"/><path fill="#080808" d="m28.0 48.67979l28.40945 0l0 55.212597l-28.40945 0z" fill-rule="evenodd"/><path stroke="#080808" stroke-width="1.0" stroke-linejoin="round" stroke-linecap="butt" d="m28.0 48.67979l28.40945 0l0 55.212597l-28.40945 0z" fill-rule="evenodd"/><path fill="#080808" d="m10.643044 65.27821l30.740158 0l0 39.55906l-30.740158 0z" fill-rule="evenodd"/><path stroke="#080808" stroke-width="1.0" stroke-linejoin="round" stroke-linecap="butt" d="m10.643044 65.27821l30.740158 0l0 39.55906l-30.740158 0z" fill-rule="evenodd"/><path fill="#080808" d="m5.1732283 69.65879l30.740158 0l0 35.84252l-30.740158 0z" fill-rule="evenodd"/><path stroke="#080808" stroke-width="1.0" stroke-linejoin="round" stroke-linecap="butt" d="m5.1732283 69.65879l30.740158 0l0 35.84252l-30.740158 0z" fill-rule="evenodd"/><path fill="#080808" d="m-0.7664042 75.13648l30.740158 0l0 30.362206l-30.740158 0z" fill-rule="evenodd"/><path stroke="#080808" stroke-width="1.0" stroke-linejoin="round" stroke-linecap="butt" d="m-0.7664042 75.13648l30.740158 0l0 30.362206l-30.740158 0z" fill-rule="evenodd"/><path fill="#080808" d="m370.9134 91.34121l12.881897 0l0 12.535431l-12.881897 0z" fill-rule="evenodd"/><path stroke="#080808" stroke-width="1.0" stroke-linejoin="round" stroke-linecap="butt" d="m370.9134 91.34121l12.881897 0l0 12.535431l-12.881897 0z" fill-rule="evenodd"/><path fill="#080808" d="m737.90027 63.11811l17.574768 0l0 39.55905l-17.574768 0z" fill-rule="evenodd"/><path stroke="#080808" stroke-width="1.0" stroke-linejoin="round" stroke-linecap="butt" d="m737.90027 63.11811l17.574768 0l0 39.55905l-17.574768 0z" fill-rule="evenodd"/><path fill="#080808" d="m703.54596 60.742783l19.590515 0l0 41.921257l-19.590515 0z" fill-rule="evenodd"/><path stroke="#080808" stroke-width="1.0" stroke-linejoin="round" stroke-linecap="butt" d="m703.54596 60.742783l19.590515 0l0 41.921257l-19.590515 0z" fill-rule="evenodd"/><path fill="#080808" d="m723.1365 83.86089l7.1810913 0l0 18.803146l-7.1810913 0z" fill-rule="evenodd"/><path stroke="#080808" stroke-width="1.0" stroke-linejoin="round" stroke-linecap="butt" d="m723.1365 83.86089l7.1810913 0l0 18.803146l-7.1810913 0z" fill-rule="evenodd"/><path fill="#080808" d="m696.3648 81.485565l7.1811523 0l0 21.196846l-7.1811523 0z" fill-rule="evenodd"/><path stroke="#080808" stroke-width="1.0" stroke-linejoin="round" stroke-linecap="butt" d="m696.3648 81.485565l7.1811523 0l0 21.196846l-7.1811523 0z" fill-rule="evenodd"/><path fill="#080808" d="m684.8268 72.301834l7.1810913 0l0 30.362206l-7.1810913 0z" fill-rule="evenodd"/><path stroke="#080808" stroke-width="1.0" stroke-linejoin="round" stroke-linecap="butt" d="m684.8268 72.301834l7.1810913 0l0 30.362206l-7.1810913 0z" fill-rule="evenodd"/><path fill="#080808" d="m680.7743 75.13648l4.0629883 0l0 27.527557l-4.0629883 0z" fill-rule="evenodd"/><path stroke="#080808" stroke-width="1.0" stroke-linejoin="round" stroke-linecap="butt" d="m680.7743 75.13648l4.0629883 0l0 27.527557l-4.0629883 0z" fill-rule="evenodd"/><path fill="#080808" d="m636.1312 63.11811l19.590576 0l0 39.55905l-19.590576 0z" fill-rule="evenodd"/><path stroke="#080808" stroke-width="1.0" stroke-linejoin="round" stroke-linecap="butt" d="m636.1312 63.11811l19.590576 0l0 39.55905l-19.590576 0z" fill-rule="evenodd"/><path fill="#080808" d="m618.0551 33.230972l12.881897 0l0 69.448814l-12.881897 0z" fill-rule="evenodd"/><path stroke="#080808" stroke-width="1.0" stroke-linejoin="round" stroke-linecap="butt" d="m618.0551 33.230972l12.881897 0l0 69.448814l-12.881897 0z" fill-rule="evenodd"/><path fill="#080808" d="m594.61945 41.939632l17.574768 0l0 60.724407l-17.574768 0z" fill-rule="evenodd"/><path stroke="#080808" stroke-width="1.0" stroke-linejoin="round" stroke-linecap="butt" d="m594.61945 41.939632l17.574768 0l0 60.724407l-17.574768 0z" fill-rule="evenodd"/><path fill="#080808" d="m592.48816 44.31496l2.1417847 0l0 58.3622l-2.1417847 0z" fill-rule="evenodd"/><path stroke="#080808" stroke-width="1.0" stroke-linejoin="round" stroke-linecap="butt" d="m592.48816 44.31496l2.1417847 0l0 58.3622l-2.1417847 0z" fill-rule="evenodd"/><path fill="#080808" d="m590.34644 60.742783l2.1417236 0l0 41.921257l-2.1417236 0z" fill-rule="evenodd"/><path stroke="#080808" stroke-width="1.0" stroke-linejoin="round" stroke-linecap="butt" d="m590.34644 60.742783l2.1417236 0l0 41.921257l-2.1417236 0z" fill-rule="evenodd"/><path fill="#080808" d="m611.79004 75.13648l7.1810913 0l0 27.527557l-7.1810913 0z" fill-rule="evenodd"/><path stroke="#080808" stroke-width="1.0" stroke-linejoin="round" stroke-linecap="butt" d="m611.79004 75.13648l7.1810913 0l0 27.527557l-7.1810913 0z" fill-rule="evenodd"/><path fill="#080808" d="m630.937 75.13648l7.1810913 0l0 27.527557l-7.1810913 0z" fill-rule="evenodd"/><path stroke="#080808" stroke-width="1.0" stroke-linejoin="round" stroke-linecap="butt" d="m630.937 75.13648l7.1810913 0l0 27.527557l-7.1810913 0z" fill-rule="evenodd"/><path fill="#080808" d="m655.85565 82.68241l7.1810913 0l0 21.196854l-7.1810913 0z" fill-rule="evenodd"/><path stroke="#080808" stroke-width="1.0" stroke-linejoin="round" stroke-linecap="butt" d="m655.85565 82.68241l7.1810913 0l0 21.196854l-7.1810913 0z" fill-rule="evenodd"/><path fill="#080808" d="m663.65094 86.90551l7.1810913 0l0 15.748032l-7.1810913 0z" fill-rule="evenodd"/><path stroke="#080808" stroke-width="1.0" stroke-linejoin="round" stroke-linecap="butt" d="m663.65094 86.90551l7.1810913 0l0 15.748032l-7.1810913 0z" fill-rule="evenodd"/><path fill="#080808" d="m677.35693 86.90551l4.0629883 0l0 15.748032l-4.0629883 0z" fill-rule="evenodd"/><path stroke="#080808" stroke-width="1.0" stroke-linejoin="round" stroke-linecap="butt" d="m677.35693 86.90551l4.0629883 0l0 15.748032l-4.0629883 0z" fill-rule="evenodd"/><path fill="#080808" d="m670.3412 91.34121l7.1811523 0l0 11.307083l-7.1811523 0z" fill-rule="evenodd"/><path stroke="#080808" stroke-width="1.0" stroke-linejoin="round" stroke-linecap="butt" d="m670.3412 91.34121l7.1811523 0l0 11.307083l-7.1811523 0z" fill-rule="evenodd"/><path fill="#080808" d="m690.6011 87.59318l7.1810913 0l0 15.748032l-7.1810913 0z" fill-rule="evenodd"/><path stroke="#080808" stroke-width="1.0" stroke-linejoin="round" stroke-linecap="butt" d="m690.6011 87.59318l7.1810913 0l0 15.748032l-7.1810913 0z" fill-rule="evenodd"/><path fill="#080808" d="m730.5197 91.34121l7.1810913 0l0 12.535431l-7.1810913 0z" fill-rule="evenodd"/><path stroke="#080808" stroke-width="1.0" stroke-linejoin="round" stroke-linecap="butt" d="m730.5197 91.34121l7.1810913 0l0 12.535431l-7.1810913 0z" fill-rule="evenodd"/><path fill="#080808" d="m562.5276 37.18635l24.409424 0l0 65.44882l-24.409424 0z" fill-rule="evenodd"/><path stroke="#080808" stroke-width="1.0" stroke-linejoin="round" stroke-linecap="butt" d="m562.5276 37.18635l24.409424 0l0 65.44882l-24.409424 0z" fill-rule="evenodd"/><path fill="#080808" d="m564.19946 30.761154l7.1810913 0l0 6.4251976l-7.1810913 0z" fill-rule="evenodd"/><path stroke="#080808" stroke-width="1.0" stroke-linejoin="round" stroke-linecap="butt" d="m564.19946 30.761154l7.1810913 0l0 6.4251976l-7.1810913 0z" fill-rule="evenodd"/><path fill="#080808" d="m577.0026 30.761154l7.1810913 0l0 6.4251976l-7.1810913 0z" fill-rule="evenodd"/><path stroke="#080808" stroke-width="1.0" stroke-linejoin="round" stroke-linecap="butt" d="m577.0026 30.761154l7.1810913 0l0 6.4251976l-7.1810913 0z" fill-rule="evenodd"/><path fill="#080808" fill-opacity="0.0" d="m624.49603 33.230972l-0.06298828 -13.259844" fill-rule="evenodd"/><path stroke="#080808" stroke-width="1.0" stroke-linejoin="round" stroke-linecap="butt" d="m624.49603 33.230972l-0.06298828 -13.259844" fill-rule="evenodd"/><path fill="#080808" d="m587.5722 63.11811l2.1417236 0l0 39.55905l-2.1417236 0z" fill-rule="evenodd"/><path stroke="#080808" stroke-width="1.0" stroke-linejoin="round" stroke-linecap="butt" d="m587.5722 63.11811l2.1417236 0l0 39.55905l-2.1417236 0z" fill-rule="evenodd"/><path fill="#080808" d="m537.35956 59.35958l21.763794 0l0 44.503937l-21.763794 0z" fill-rule="evenodd"/><path stroke="#080808" stroke-width="1.0" stroke-linejoin="round" stroke-linecap="butt" d="m537.35956 59.35958l21.763794 0l0 44.503937l-21.763794 0z" fill-rule="evenodd"/><path fill="#080808" d="m559.7507 69.18635l2.1417236 0l0 34.14174l-2.1417236 0z" fill-rule="evenodd"/><path stroke="#080808" stroke-width="1.0" stroke-linejoin="round" stroke-linecap="butt" d="m559.7507 69.18635l2.1417236 0l0 34.14174l-2.1417236 0z" fill-rule="evenodd"/><path fill="#080808" d="m515.5958 30.761154l21.763733 0l0 73.10236l-21.763733 0z" fill-rule="evenodd"/><path stroke="#080808" stroke-width="1.0" stroke-linejoin="round" stroke-linecap="butt" d="m515.5958 30.761154l21.763733 0l0 73.10236l-21.763733 0z" fill-rule="evenodd"/><path fill="#080808" d="m542.40155 55.385826l10.5512085 0l0 3.9685059l-10.5512085 0z" fill-rule="evenodd"/><path stroke="#080808" stroke-width="1.0" stroke-linejoin="round" stroke-linecap="butt" d="m542.40155 55.385826l10.5512085 0l0 3.9685059l-10.5512085 0z" fill-rule="evenodd"/><path fill="#080808" fill-opacity="0.0" d="m544.6221 55.380577l-0.06298828 -6.645668" fill-rule="evenodd"/><path stroke="#080808" stroke-width="1.0" stroke-linejoin="round" stroke-linecap="butt" d="m544.6221 55.380577l-0.06298828 -6.645668" fill-rule="evenodd"/><path fill="#080808" d="m517.8793 26.805775l17.574768 0l0 6.4251976l-17.574768 0z" fill-rule="evenodd"/><path stroke="#080808" stroke-width="1.0" stroke-linejoin="round" stroke-linecap="butt" d="m517.8793 26.805775l17.574768 0l0 6.4251976l-17.574768 0z" fill-rule="evenodd"/><path fill="#080808" d="m520.2992 22.427822l12.881897 0l0 3.968504l-12.881897 0z" fill-rule="evenodd"/><path stroke="#080808" stroke-width="1.0" stroke-linejoin="round" stroke-linecap="butt" d="m520.2992 22.427822l12.881897 0l0 3.968504l-12.881897 0z" fill-rule="evenodd"/><path fill="#080808" d="m523.1496 18.03937l7.1810913 0l0 6.4251976l-7.1810913 0z" fill-rule="evenodd"/><path stroke="#080808" stroke-width="1.0" stroke-linejoin="round" stroke-linecap="butt" d="m523.1496 18.03937l7.1810913 0l0 6.4251976l-7.1810913 0z" fill-rule="evenodd"/><path fill="#080808" d="m525.6693 14.094488l2.1417236 0l0 3.968504l-2.1417236 0z" fill-rule="evenodd"/><path stroke="#080808" stroke-width="1.0" stroke-linejoin="round" stroke-linecap="butt" d="m525.6693 14.094488l2.1417236 0l0 3.968504l-2.1417236 0z" fill-rule="evenodd"/><path fill="#080808" d="m495.01312 64.00525l21.763794 0l0 44.503937l-21.763794 0z" fill-rule="evenodd"/><path stroke="#080808" stroke-width="1.0" stroke-linejoin="round" stroke-linecap="butt" d="m495.01312 64.00525l21.763794 0l0 44.503937l-21.763794 0z" fill-rule="evenodd"/><path fill="#080808" d="m473.25986 55.380577l30.740143 0l0 47.244095l-30.740143 0z" fill-rule="evenodd"/><path stroke="#080808" stroke-width="1.0" stroke-linejoin="round" stroke-linecap="butt" d="m473.25986 55.380577l30.740143 0l0 47.244095l-30.740143 0z" fill-rule="evenodd"/><path fill="#080808" d="m441.25986 65.27821l33.165344 0l0 39.55906l-33.165344 0z" fill-rule="evenodd"/><path stroke="#080808" stroke-width="1.0" stroke-linejoin="round" stroke-linecap="butt" d="m441.25986 65.27821l33.165344 0l0 39.55906l-33.165344 0z" fill-rule="evenodd"/><path fill="#080808" d="m412.75854 48.67979l28.409424 0l0 55.212597l-28.409424 0z" fill-rule="evenodd"/><path stroke="#080808" stroke-width="1.0" stroke-linejoin="round" stroke-linecap="butt" d="m412.75854 48.67979l28.409424 0l0 55.212597l-28.409424 0z" fill-rule="evenodd"/><path fill="#080808" d="m395.40158 65.27821l30.740143 0l0 39.55906l-30.740143 0z" fill-rule="evenodd"/><path stroke="#080808" stroke-width="1.0" stroke-linejoin="round" stroke-linecap="butt" d="m395.40158 65.27821l30.740143 0l0 39.55906l-30.740143 0z" fill-rule="evenodd"/><path fill="#080808" d="m389.93176 69.65879l30.740143 0l0 35.84252l-30.740143 0z" fill-rule="evenodd"/><path stroke="#080808" stroke-width="1.0" stroke-linejoin="round" stroke-linecap="butt" d="m389.93176 69.65879l30.740143 0l0 35.84252l-30.740143 0z" fill-rule="evenodd"/><path fill="#080808" d="m383.99213 75.13648l30.740143 0l0 30.362206l-30.740143 0z" fill-rule="evenodd"/><path stroke="#080808" stroke-width="1.0" stroke-linejoin="round" stroke-linecap="butt" d="m383.99213 75.13648l30.740143 0l0 30.362206l-30.740143 0z" fill-rule="evenodd"/><path fill="#080808" d="m755.67194 91.34121l12.881897 0l0 12.535431l-12.881897 0z" fill-rule="evenodd"/><path stroke="#080808" stroke-width="1.0" stroke-linejoin="round" stroke-linecap="butt" d="m755.67194 91.34121l12.881897 0l0 12.535431l-12.881897 0z" fill-rule="evenodd"/><path fill="#080808" d="m-0.64041996 102.62467l769.0079 0l0 30.362206l-769.0079 0z" fill-rule="evenodd"/><path stroke="#080808" stroke-width="1.0" stroke-linejoin="round" stroke-linecap="butt" d="m-0.64041996 102.62467l769.0079 0l0 30.362206l-769.0079 0z" fill-rule="evenodd"/></g></svg>